<svg xmlns="http://www.w3.org/2000/svg" viewBox="0 0 960 640" xml:space="preserve"><path fill="#010101" d="M618.297 558.388v11.824h-2.957v-11.824h-3.423v-2.937h9.802v2.937h-3.422zm16.022 11.824V561.5l-2.49 5.428h-2.611l-2.49-5.428v8.713h-2.956V555.45h2.955l3.797 7.883 3.795-7.883h2.957v14.761h-2.957zM811.717 198.123c-1.477-3.858-4.37-7.746-8.475-11.55l17.383-4.9-2.064-7.738c-8.973 1.937-16.295 4.59-22.05 7.214-24.574-17.552-72.848-32.11-116.81-32.11-37.456 0-73.896 8.008-92.574 12.876l41.77-42.758C576.102 64.247 501.955 30 419.936 30 260.032 30 129.94 160.094 129.94 320s130.092 290 289.996 290c88.446 0 167.747-39.81 220.978-102.435l-49.03-49.362 188.023-8.549a7.546 7.546 0 0 0 6.628-4.644l17.398-41.87a7.544 7.544 0 0 0-.822-7.276 7.565 7.565 0 0 0-6.6-3.163l-212.594 12.684c-24.098 1.35-35.544-6.072-40.836-11.982l150.03-41.315c30.005-8.44 34.048-24.666 34.048-39.417v-33.84c0-16.842 83.3-47.471 85.592-73.958 4.737-.424 10.447-.717 17.31-.717v-7.885c-7.338 0-13.38.764-18.344 1.852z"/><path fill="#FFF" d="M719.609 312.663v-33.831c0-22.745 80.142-52.996 85.423-73.056-7.31 1.103-10.505 2.36-10.505 2.36l-1.253-1.913s3.352-3.278 11.237-6.072c-1.45-3.487-4.845-7.298-9.84-11.163l-12.746 3.595-1.108-1.99s2.735-2.439 8.175-5.586c-22.505-14.428-65.294-28.424-109.29-28.424-52.09 0-103.149 16.156-103.149 16.156l-5.354-5.323 47.124-48.236c-51.04-50.434-121.132-81.635-198.387-81.635-155.742 0-282.449 126.715-282.449 282.455s126.707 282.447 282.449 282.447c83.654 0 158.905-36.57 210.67-94.55l-47.456-47.78-8.634-8.688 205.048-9.32 17.398-41.87-212.597 12.683c-45.605 2.554-52.78-24.18-52.78-24.18l159.52-43.938c25.433-7.152 28.504-19.558 28.504-32.14z"/><g fill="#00965E"><path d="m583.15 460.116-8.633-8.687-61.213-49.03c-6.292-5.3-10.91-2.747-14.154-.687-68.409 41.577-166.106 70.085-224 70.085-16.281 0-21.282-5.254-22.418-8.517-.203-.579-.286-1.096-.286-1.512 0-3.342 1.968-6.288 4.622-9.336l58.087-65.61-82.562-3.025c-7.814-.293-10.392-6.11-10.392-9.134 0-4.645 1.62-7.376 6.706-10.247 5.088-2.877 143.451-69.444 154.065-67.97l-45.595-36.517c-9.289-7.437-15.293-17.59-15.293-17.59l2.95-3.68 2.95-3.688s11.216 3.641 20.507 11.086l16.18 12.962 6.833 5.47c5.582-16.441 19.924-49.647 50.039-73.449 13.488-12.761 57.008-45.373 139.048-33.098 3.63 3.063 7.194 6.195 10.608 9.474l47.125-48.236c-51.04-50.434-121.133-81.634-198.388-81.634-155.741 0-282.449 126.714-282.449 282.454s126.708 282.447 282.449 282.447c83.655 0 158.905-36.57 210.67-94.55l-47.456-47.78z"/><path d="m721.68 222.974 4.02-3.387 21.973 11.51 2.392 1.25c19.89-14.095 35.027-26.27 35.027-26.27l-15.095 3.017-2.241-6.674 19.342-5.902-21.117.501-4.305-7.02 11.345-.016s-49.481-27.698-111.797-27.698c-41.292 0-72.732 14.575-85.523 21.626 11.264 4.59 93.608 39.008 129.426 77.214 11.492-6.318 23.694-14.126 35.012-21.857l-20.63-14.474 2.171-1.82zm-14.261-21.472 5.998-9.143 10.111-.57 14.262-.803-4.915 9.536-14.37.556-11.086.424z"/></g><path fill="#FFC72C" d="M415.662 534.607c-122.127 0-221.132-96.093-221.132-214.638 0-118.536 99.005-214.637 221.132-214.637 55.463 0 106.113 19.874 144.929 52.61 3.63 3.063 7.194 6.195 10.608 9.474l47.124-48.236c-51.04-50.434-121.132-81.634-198.387-81.634-155.742 0-282.449 126.714-282.449 282.454s126.707 282.447 282.449 282.447c83.654 0 158.905-36.57 210.67-94.55l-47.456-47.78c-40.555 45.62-100.545 74.49-167.488 74.49z"/><g fill="#FFC72C"><path d="M348.491 246.057c-9.291-7.445-20.507-11.086-20.507-11.086l-2.95 3.687 34.081 27.297 5.557-6.936-16.181-12.962zM275.15 471.797c57.893 0 155.591-28.508 224-70.085 3.244-2.06 7.862-4.613 14.154.687-11.72-9.382-16.862-7.037-20.095-4.961-65.268 41.87-172.747 70.077-218.059 70.077-12.618 0-19.1-1.967-22.418-4.235 1.136 3.263 6.137 8.517 22.418 8.517zM503.575 163.759c-35.564 0-62.2 11.604-82.032 27.281-30.115 23.802-44.457 57.008-50.04 73.449-2.11 6.21-2.977 10.045-2.977 10.045l32.14 25.306s50.33-75.964 175.887-127.1c0 0-15.778-8.981-72.978-8.981z"/><path d="M682.557 266.665c-69.885-62.216-138.882-71.945-138.882-71.945-105.367 53.86-136.573 110.19-136.573 110.19l98.217 77.337 176.28-106.903c4.518-2.739 2.948-6.835.957-8.68zM263.112 464.082c46.099 0 155.993-33.7 217.406-70.965 7.202-4.667 1.929-8.818 1.06-9.497l-82.224-64.754c-1.84-1.443-4.684-3.672-8.603.394L260.27 454.53c-3.078 3.187-3.647 9.552 2.841 9.552zM227.58 372.819c0 2.553 3.146 4.52 6.88 4.52l73.914.34c8.91.039 11.94-3.163 13.89-5.123l61.835-64.098c1.963-2.037.495-4.93-6.138-3.163-64.87 19.165-147.825 63.002-147.825 63.002s-2.556 1.644-2.556 4.522zM693.555 323.827l.94-46.253-155.33 97.552c16.893 0 148.287-42.797 154.39-51.3zM575.7 183.911c-4.077 2.245-6.276 3.734-6.276 3.734s91.704 36.463 128.953 77.06a227.848 227.848 0 0 0 6.75-3.58c-35.818-38.206-118.162-72.623-129.426-77.214zM725.7 219.587l-4.02 3.387 20.238 12.143 5.755-4.02zM737.79 190.986l-14.262.802-5.022 9.29 14.37-.556z"/></g></svg>