<svg xmlns="http://www.w3.org/2000/svg" viewBox="0 0 960 640" xml:space="preserve"><path fill="#00843D" d="M750.191 577.6v11.824h-2.957V577.6h-3.423v-2.938h9.803v2.938h-3.423zm16.023 11.824v-8.713l-2.49 5.428h-2.612l-2.49-5.428v8.713h-2.956v-14.762h2.956l3.796 7.883 3.796-7.883h2.956v14.762h-2.956zM653.704 293.406v190.198H538.063V379.52H421.937v104.084H306.3V293.406c0-43.03-70.364-49.11-122.075-106.452v260.64c0 89.694 72.707 162.406 162.4 162.406 55.244 0 104.035-27.594 133.377-69.739C509.338 582.406 558.127 610 613.373 610c89.69 0 162.403-72.712 162.403-162.405V186.954c-51.709 57.341-122.072 63.421-122.072 106.452z"/><path fill="#012169" d="M775.776 53.393c0-12.877-2.787-23.393-9.329-23.393-13.436 0-23.336 40.205-103.594 40.205-84.23 0-143.612-15.901-182.852 43.781-39.245-59.682-98.621-43.781-182.855-43.781-80.257 0-90.157-40.205-103.59-40.205-6.548 0-9.332 10.516-9.332 23.393 0 207.516 237.713 159.485 237.713 240.012v52.996h116.126v-52.996c0-80.527 237.713-32.496 237.713-240.012z"/></svg>