<svg xmlns="http://www.w3.org/2000/svg" viewBox="0 0 960 640" xml:space="preserve"><path fill="#009639" d="M638.773 628.176V640h-2.957v-11.824h-3.423v-2.938h9.802v2.938h-3.422zM654.795 640v-8.713l-2.49 5.428h-2.611l-2.49-5.427V640h-2.956v-14.762h2.956l3.796 7.883 3.796-7.883h2.956V640h-2.957z"/><path fill="#FFD100" d="m590.659 256.154-95.277 69.724-75.221-188.85h-174.2L230.1 247.515l29.428 29.434h45.367L257.51 607.202l32.8 32.798h66.556l35.706-248.827L491.675 640h124.54l39.766-277.096h49.92l-115.242-106.75zm-80.533 106.75h14.959l-3.96 27.611-10.999-27.61z"/><path fill="#009639" d="M269.566 605.58h80.414l37.231-259.482L490.563 605.58h90.984l39.762-277.094h30.204L589.786 271.3l-78.148 57.186h30.21l-15.37 107.109L412.226 148.73H256.1l-13.459 93.802h79.014z"/><path fill="#009639" d="m607.798 164.901 75.21 75.217-24.266-111.73 71.156-50.984H647.66L630.846 0l-41.45 77.404h-69.079l44.986 44.998-63.402 118.36L607.798 164.9z"/><path fill="#FFD100" d="m609.179 148.072 51.95 51.955-16.766-77.175 45.462-32.575h-52.543l-11.596-53.373-28.581 53.373H551.39l29.773 29.78-41.768 78.008z"/></svg>