<svg xmlns="http://www.w3.org/2000/svg" viewBox="0 0 960 640" xml:space="preserve"><path fill="#010101" d="M771.76 603.857c-8.282 0-15.005 6.713-15.005 15 0 8.279 6.723 15.002 15.005 15.002s14.995-6.723 14.995-15.001c0-8.288-6.713-15.001-14.995-15.001zm0 26.783a11.772 11.772 0 0 1-11.782-11.782c0-6.51 5.264-11.774 11.782-11.774 6.51 0 11.78 5.264 11.78 11.774 0 6.512-5.27 11.782-11.78 11.782zm6.164-15.259a5.085 5.085 0 0 0-5.09-5.082h-7.228v17.122h3.213v-6.954h2.306l3.246 6.954h3.553l-3.389-7.25a5.096 5.096 0 0 0 3.389-4.79zm-5.09 1.872h-4.015v-3.747h4.014c1.033 0 1.878.839 1.878 1.875a1.878 1.878 0 0 1-1.878 1.872z"/><path fill="#FFF" d="m735.441 604.517-.036-30.312-68.71-36.63-11.601-32.066-42.627-53.809 10.011-8.802 9.031 5.295 23.952-21.529 8.336 74.91 29.93-73.231 49.385 86.674-13.747-125.065-56.349-62.115-27.298 22.135-.555-.468-2.87-47.432-127.384-54.775-8.573-7.068 54.381 5.175-61.875-46.046 2.386-2.365-6.943-114.036-66.262 78.655-3.311-.016 2.559-57.803L368.43 0l8.8 96.575-6.454 11.17-76.608-43.068 57.37 75.054-24.105 40.532-13.838 117.154-62.19 41.853 41.086 68.748-102.065 73.36 44.268 63.178-49.17 29.398-.027 31.097-12.252 34.07h222.477l61.47-52.55 20.89 1.997 38.272-31.605-3.615-18.083 15.262-13.54 51.584 56.118.093 33.842 9.812 24.7h162.932l-16.98-35.483zm-170.93-185.273-5.67-1.57 16.935-23.586 1.583 14.327-12.847 10.83z"/><path fill="#010101" d="m413.678 557.27-13.8 11.636h-51.305l-31.033-58.894 32.691-19.904 61.075 39.023L404 542.25l9.678 15.02m113.67-202.022-9.066 21.357-14.99-25.518 24.056 4.161m45.316 7.839-30.18 13.041-2.575-18.738 32.755 5.697m13.058 48.669-19.293 16.263-20.682-5.73 35.65-49.655 4.325 39.122m141.743 167.22-67.201-35.826-12.202-33.721-46.508-58.711 19.989-17.577 8.974 5.26 31.13-27.978 6.597 59.27 24.306-59.465 38.474 67.525-9.274-84.373-49.57-54.638-26.562 21.54-8.18-6.9-2.781-45.945-123.927-53.29-29.457-24.283 51.89 4.937-46.473-34.582 6.39-6.334-5.517-90.617-55.862 66.31-15.29-.08 2.821-63.775-39.548-69.76 5.689 62.4-11.647 20.154-49.806-28 37.193 48.657-25.989 43.699-14.067 119.098-58.97 39.685 40.97 68.553-101.62 73.038 44.665 63.745-52.636 31.471-.027 27.978-8.893 24.736h208.243l61.805-52.834 20.968 2.003 32.07-26.484-3.577-17.9 24.512-21.742 58.955 64.132.096 35.417 7.265 18.287h144.929l-12.315-25.73-.032-27.35"/><g fill="#154734"><path d="m534.304 509.24 20.091 21.896 85.432-19.796-44.235-55.795zM503.097 417.446v63.598l56.387-47.06zM211.535 485.07l18.959 26.795 78.978-5.596 37.447-22.947-39.849-66.962zM672.992 437.83l8.618-21.064-11.024-1.798zM716.895 413.663l-10.998 4.218 14.535 26.527zM365.071 132.386l4.152-6.97-21.215-13.472zM393.013 98.049l18.674 9.122-21.374-37.532z"/></g><g fill="#A9431E"><path d="m654.06 548.325-10.806-30.038-83.55 18.997 35.038 37.94v30.909h125.197v-22.77zM629.472 429.142l31.256-27.916-1.908-19.51-28.373-24.606-2.947-39.8-39.834 41.563 5.014 50.097zM536.318 387.136l-3.397-25.883-13.882 32.214-15.942-29.047v45.067l35.003 10.531 35.594-49.022zM467.47 510.703l-59.04-53.146-50.07 28.977 62.997 40.1-8.709 15.284 26.061 39.895 9.011-8.04-15.117-34.03z"/><path d="m483.258 525.171-35.791 28.667 7.297 16.812 17.986 1.867 26.607-21.876-3.498-15.936zM235.353 519.038l21.583 30.11-55.607 33.161.007 24.144 66.22-.06 12.704-37.487h59.857l-29.212-55.337zM457.163 219.846l49.77 4.807L475.3 200.99l10.042-10.239-4.053-68.185-46.043 54.669-21.024-.74-22.612 21.65 4.911 17.189-40.118 92.395 4.262 24.672 19.49-21.54 18.054-19.954.002-.003 13.81-15.263 11.63-12.853 38.276 8.71-20.638-29.21 47.546 3.638-31.672-26.08zm-36.327 23.393c-9.32 0-16.88-7.554-16.88-16.879 0-9.324 7.56-16.88 16.88-16.88 9.325 0 16.882 7.556 16.882 16.88 0 9.325-7.557 16.879-16.882 16.879z"/></g><g fill="#5F259F"><path d="m258.518 517.361-8.68.628h.002l18.674 26.682 8.875-.865-18.855-26.421zM276.088 516.09l-8.734.632.012.016 18.64 26.633 8.872-.853-18.785-26.42zM293.843 514.806l-.03.002-8.701.628v.002l18.64 26.633 8.873-.854zM475.369 148.933l-24.593 28.777 26.193.456zM586.513 531.19l-8.427 1.914-.046.012 22.244 23.905 8.669-2.07-22.423-23.742zM603.378 527.355l-8.475 1.928.01.012 22.218 23.875 8.67-2.069-22.397-23.717zM620.394 523.486l-.006.002-8.472 1.926.002.002 22.224 23.885 8.671-2.07z"/></g><g fill="#DDCBA4"><path d="M464.212 416.315h-61.463l12.744 37.504 57.885 52.116 21.564-17.913v-71.707zM417.74 563.534l-15.058 12.801-26.581.003-15.296 47.327h29.31l43.095-36.783zM331.317 600.046l.003-.014-16.13-15.167 23.977-8.522-53.532.006-15.732 47.316h53.59L307.53 608.54z"/></g><g fill="#6F263D"><path d="m714.853 395.891-22.762-23.69-23.857 20.415 2.352 22.352 11.024 1.798 5.63-13.765.323-22.375 12.21 26.082 6.124 11.173 10.998-4.218z"/><ellipse cx="420.811" cy="226.421" rx="9.175" ry="9.172"/><path d="m411.687 107.17-18.674-9.121 16.277 61.243zM458.728 459.351v6.95h36.221l.003-6.95h-.01zM458.728 473.093v6.947h36.214l.002-6.947h-.002zM400.452 408.897l94.49.003V253.81l-38.49-2.822 22.903 32.39-53.01-12.23-64.682 71.094-42.955-20.845.983-9.507-47.433 31.909 7.626 12.366 4.623 8.018 23.606 39.594 3.92 6.578 41.793 70.1 52.687-30.459-13.842-39.641-2.297-6.578-10.827-31.008-2.686-7.688 8.555.785 15.036 43.031zm34.723-97.633c22.872 0 41.413 18.541 41.413 41.412s-18.54 41.414-41.413 41.414c-22.87 0-41.412-18.543-41.412-41.414s18.541-41.412 41.412-41.412zM582.682 293.145l-7.388-3.176-33.267-14.309-7.395-3.179-31.535-13.565v84.526l16.545 2.863 7.206 1.246 28.073 4.857 7.218 1.248 17.51 3.031 43.722-46.04zM331.331 600.001l-.01.03-.004.015-7.825 23.619h30.618l15.285-47.325-30.226.003z"/></g><g fill="#5F259F"><path d="m418.113 437.185 15.365-20.87h-30.729z"/><path d="m448.842 437.185 15.365-20.87h-30.73zM479.575 437.185l15.367-20.87h-30.73zM390.374 403.777l-10.827-31.008-2.686-7.689-96.977-8.915 4.623 8.017 23.606 39.595 3.92 6.578h80.639zM575.294 289.969l-33.267-14.309-7.395-3.179-14.99 73.824 7.206 1.246 28.073 4.857 7.218 1.248 20.543-60.51zM360.665 332.4l19.49-21.54-23.752-3.131z"/><path d="m380.155 310.86 18.054-19.953-21.836-1.883zM423.65 262.788l-16.075-2.342 4.446 15.195zM393.876 273.18l4.335 17.724 13.81-15.263zM469.944 347.755c-1.787-16.384-14.892-29.418-31.316-31.078-15.331.36-23.774 9.192-23.774 25.001 0 17.23 14.02 31.248 31.251 31.248 16.424 0 23.78-7.771 23.84-25.171zM331.32 600.032l.011-.031 7.837-23.658-23.977 8.522zM323.492 623.665l7.825-23.62-23.786 8.495zM354.11 623.665h6.695l15.296-47.327-6.706.002z"/></g><g fill="#DDCBA4"><path d="m390.374 403.777-10.827-31.008-95.04-8.587 23.606 39.595zM575.294 289.969l-33.267-14.309-15.18 71.891 28.074 4.857zM687.136 366.268l-15.768-17.332-20.095 16.316 18.81 15.81zM723.436 613.649l-128.168.024 4.534 10.744h128.77zM591.27 416.729l-111.587 93.77-37.818 31.224 2.315 5.165 38.977-31.304 17.27 13.328 113.812-99.542zM195.683 623.665h66.404l2.878-9.614h-65.81zM405.733 174.298l-17.567-65.947-45.784 76.85-15.61 131.417 21.537-11.852 39.426-89.904-5.687-18.94 23.685-21.624zm-69.76 129.754a3.34 3.34 0 0 1-3.344-3.344 3.346 3.346 0 0 1 6.691 0c0 1.848-1.5 3.344-3.347 3.344zm1.575-11.036a3.347 3.347 0 0 1 0-6.694 3.346 3.346 0 1 1 0 6.694zm1.578-11.044a3.345 3.345 0 1 1 0-6.689 3.345 3.345 0 0 1 0 6.69zm6.23 17.218a3.348 3.348 0 0 1-3.348-3.348c0-1.846 1.5-3.343 3.348-3.343a3.346 3.346 0 1 1 0 6.69zm1.577-11.039a3.35 3.35 0 0 1-3.347-3.348 3.346 3.346 0 1 1 6.691 0 3.346 3.346 0 0 1-3.344 3.348zm1.576-11.04a3.347 3.347 0 0 1 0-6.694 3.347 3.347 0 0 1 0 6.694zm24.578-61.387-23.076-7.521 3.3-8.715 23.42 7.833-3.644 8.403zm-1.878-41.72L357.593 174l24.006-40.507-10.39 40.512zM408.253 341.678c0-6.158 1.136-11.542 3.286-16.042-7.075 6.423-11.552 15.66-11.552 25.946 0 19.346 15.739 35.086 35.085 35.086 8.948 0 17.098-3.394 23.303-8.926-3.587 1.167-7.665 1.785-12.27 1.785-20.87 0-37.852-16.978-37.852-37.849z"/></g></svg>