<svg xmlns="http://www.w3.org/2000/svg" viewBox="0 0 960 640"><path fill="#006ac6" d="m397.728 354.985 68.563 110.334c8.925 14.353 14.352 27.427 15.943 40.183 9.568 64.096-60.275 117.67-145.105 130.743-81 12.756-164.87-14.67-173.478-74.618-7.971-57.723 56.76-107.148 134.893-120.547 15.306-2.87 31.893-4.15 48.471-3.824L74.998.686h101.728l55.17 88.336c12.113-1.915 20.728-11.158 20.728-26.783 0-12.756-5.42-24.557-28.062-61.545h660.442c-16.905 33.483-54.853 67.927-102.371 88.018l34.126 7.018c-28.062 29.016-68.245 53.892-112.886 67.609l34.437 12.437c-28.698 24.232-64.415 44.967-112.25 56.444l31.25 16.578c-34.445 21.362-71.75 36.352-121.502 44.013l25.194 26.783c-35.08 8.926-67.927 10.84-102.689 8.926l22.96 36.67c-22.96 2.55-53.256-1.273-83.551-10.205z"/><path fill="#ffb81c" d="M856.774 15.675H251.503c13.71 22.325 17.222 34.762 17.222 46.557 0 21.362-11.484 39.22-43.687 42.733L169.23 15.357h-66.655L375.873 454.17c-24.232-3.506-50.387-2.87-73.983 1.27-72.386 12.438-129.155 56.762-122.454 104.28 7.016 49.107 80.682 73.983 156.263 62.188 78.767-12.438 140.63-60.591 132.34-114.483-1.279-10.522-5.738-21.362-13.717-34.444l-89.925-144.143c30.613 12.12 66.33 20.091 89.607 20.41l-23.922-37.95c35.717 3.505 67.928 3.823 100.457-1.279l-28.699-29.653c49.108-3.187 88.654-13.391 123.098-31.25l-45.602-24.557c56.443-6.699 93.438-21.681 126.603-44.33l-57.722-21.045c62.18-8.29 104.279-29.342 135.528-54.21L720.602 91.58c61.553-11.158 107.792-39.22 136.172-75.898zM652.335 82.323H312.39l3.505 5.42c4.466 7.336 7.335 8.925 15.943 8.925h342.177l73.348 15.625c-37.314 21.681-86.42 35.398-163.274 35.398H353.21l3.504 5.42c4.784 7.335 7.654 8.926 16.26 8.926l240.133-.319 58.676 21.682c-39.546 19.772-79.41 27.744-144.46 28.062l-133.622.636 3.513 5.427c4.784 7.336 7.654 8.925 16.268 8.925l138.723-.317 40.182 22.006c-29.651 11.484-72.385 18.494-115.444 18.494h-7.971l30.931 31.892c-36.67 1.598-68.88-.953-98.54-5.745l22.96 37.313c-23.921-3.187-63.46-15.943-95.99-31.893l113.53 182.41c7.018 11.484 10.522 20.41 11.802 29.024 6.7 43.37-47.2 86.42-119.904 97.897-69.842 10.84-133.62-11.484-139.04-50.068-5.42-36.996 43.687-76.217 110.016-87.7 35.08-5.747 75.263-4.149 104.28 8.614L129.661 30.021h31.567l55.807 89.608c45.285.953 67.61-25.512 67.61-56.762 0-10.522-2.552-20.727-7.972-32.846h546.27c-39.54 35.716-98.86 52.302-170.609 52.302"/><path fill="#006ac6" d="M440.567 614.118c0 5.132 4.156 9.296 9.296 9.296s9.29-4.163 9.29-9.296-4.157-9.296-9.29-9.296-9.296 4.156-9.296 9.296m16.594 0c0 4.027-3.263 7.305-7.305 7.305s-7.305-3.27-7.305-7.305 3.27-7.305 7.305-7.305 7.305 3.27 7.305 7.305"/><path fill="#006ac6" d="M446.041 619.432h1.998v-4.322h1.431l2.006 4.322h2.203l-2.097-4.505a3.152 3.152 0 0 0-1.052-6.116h-4.489zm1.991-8.63h2.49c.636 0 1.158.522 1.158 1.166s-.522 1.158-1.157 1.158h-2.491z"/></svg>